<svg width="58" height="12" viewBox="0 0 58 12" fill="none" xmlns="http://www.w3.org/2000/svg">
<path d="M0.864 0.504H3.696L5.652 6.048H5.676L7.644 0.504H10.464V9H8.592V2.484H8.568L6.336 9H4.908L2.76 2.484H2.736V9H0.864V0.504ZM11.752 6.084C11.752 5.62 11.836 5.2 12.004 4.824C12.172 4.448 12.4 4.128 12.688 3.864C12.984 3.592 13.328 3.384 13.72 3.24C14.12 3.096 14.544 3.024 14.992 3.024C15.44 3.024 15.86 3.096 16.252 3.24C16.652 3.384 16.996 3.592 17.284 3.864C17.58 4.128 17.812 4.448 17.98 4.824C18.148 5.2 18.232 5.62 18.232 6.084C18.232 6.548 18.148 6.968 17.98 7.344C17.812 7.72 17.58 8.044 17.284 8.316C16.996 8.58 16.652 8.784 16.252 8.928C15.86 9.072 15.44 9.144 14.992 9.144C14.544 9.144 14.12 9.072 13.72 8.928C13.328 8.784 12.984 8.58 12.688 8.316C12.4 8.044 12.172 7.72 12.004 7.344C11.836 6.968 11.752 6.548 11.752 6.084ZM13.552 6.084C13.552 6.524 13.676 6.88 13.924 7.152C14.18 7.424 14.536 7.56 14.992 7.56C15.448 7.56 15.8 7.424 16.048 7.152C16.304 6.88 16.432 6.524 16.432 6.084C16.432 5.644 16.304 5.288 16.048 5.016C15.8 4.744 15.448 4.608 14.992 4.608C14.536 4.608 14.18 4.744 13.924 5.016C13.676 5.288 13.552 5.644 13.552 6.084ZM19.2923 3.168H21.0203V3.96H21.0443C21.1003 3.848 21.1803 3.736 21.2843 3.624C21.3883 3.512 21.5123 3.412 21.6562 3.324C21.8003 3.236 21.9643 3.164 22.1483 3.108C22.3323 3.052 22.5323 3.024 22.7483 3.024C23.2043 3.024 23.5723 3.096 23.8523 3.24C24.1323 3.376 24.3483 3.568 24.5003 3.816C24.6603 4.064 24.7683 4.356 24.8242 4.692C24.8803 5.028 24.9083 5.392 24.9083 5.784V9H23.1083V6.144C23.1083 5.976 23.1003 5.804 23.0843 5.628C23.0763 5.444 23.0403 5.276 22.9763 5.124C22.9203 4.972 22.8283 4.848 22.7003 4.752C22.5803 4.656 22.4043 4.608 22.1723 4.608C21.9403 4.608 21.7523 4.652 21.6083 4.74C21.4643 4.82 21.3523 4.932 21.2723 5.076C21.2003 5.212 21.1523 5.368 21.1283 5.544C21.1043 5.72 21.0923 5.904 21.0923 6.096V9H19.2923V3.168ZM31.7029 7.992C31.4149 8.36 31.0509 8.644 30.6109 8.844C30.1709 9.044 29.7149 9.144 29.2429 9.144C28.7949 9.144 28.3709 9.072 27.9709 8.928C27.5789 8.784 27.2349 8.58 26.9389 8.316C26.6509 8.044 26.4229 7.72 26.2549 7.344C26.0869 6.968 26.0029 6.548 26.0029 6.084C26.0029 5.62 26.0869 5.2 26.2549 4.824C26.4229 4.448 26.6509 4.128 26.9389 3.864C27.2349 3.592 27.5789 3.384 27.9709 3.24C28.3709 3.096 28.7949 3.024 29.2429 3.024C29.6589 3.024 30.0349 3.096 30.3709 3.24C30.7149 3.384 31.0029 3.592 31.2349 3.864C31.4749 4.128 31.6589 4.448 31.7869 4.824C31.9149 5.2 31.9789 5.62 31.9789 6.084V6.648H27.8029C27.8749 6.992 28.0309 7.268 28.2709 7.476C28.5109 7.676 28.8069 7.776 29.1589 7.776C29.4549 7.776 29.7029 7.712 29.9029 7.584C30.1109 7.448 30.2909 7.276 30.4429 7.068L31.7029 7.992ZM30.1789 5.424C30.1869 5.12 30.0869 4.86 29.8789 4.644C29.6709 4.428 29.4029 4.32 29.0749 4.32C28.8749 4.32 28.6989 4.352 28.5469 4.416C28.3949 4.48 28.2629 4.564 28.1509 4.668C28.0469 4.764 27.9629 4.88 27.8989 5.016C27.8429 5.144 27.8109 5.28 27.8029 5.424H30.1789ZM36.4335 9.948C36.3135 10.26 36.1975 10.536 36.0855 10.776C35.9735 11.016 35.8295 11.216 35.6535 11.376C35.4855 11.544 35.2695 11.668 35.0055 11.748C34.7415 11.836 34.3935 11.88 33.9615 11.88C33.4975 11.88 33.0495 11.808 32.6175 11.664L32.8575 10.188C33.1295 10.308 33.4095 10.368 33.6975 10.368C33.8975 10.368 34.0615 10.344 34.1895 10.296C34.3175 10.256 34.4215 10.192 34.5015 10.104C34.5895 10.024 34.6615 9.924 34.7175 9.804C34.7735 9.684 34.8335 9.544 34.8975 9.384L35.0295 9.048L32.4735 3.168H34.4175L35.9175 7.02H35.9415L37.2255 3.168H39.0735L36.4335 9.948ZM39.7655 3.168H41.5655V9H39.7655V3.168ZM39.6215 1.332C39.6215 1.044 39.7215 0.8 39.9215 0.599999C40.1295 0.392 40.3775 0.288 40.6655 0.288C40.9535 0.288 41.1975 0.392 41.3975 0.599999C41.6055 0.8 41.7095 1.044 41.7095 1.332C41.7095 1.62 41.6055 1.868 41.3975 2.076C41.1975 2.276 40.9535 2.376 40.6655 2.376C40.3775 2.376 40.1295 2.276 39.9215 2.076C39.7215 1.868 39.6215 1.62 39.6215 1.332ZM46.1587 4.884C45.8947 4.556 45.5467 4.392 45.1147 4.392C44.9627 4.392 44.8147 4.428 44.6707 4.5C44.5267 4.572 44.4547 4.696 44.4547 4.872C44.4547 5.016 44.5267 5.124 44.6707 5.196C44.8227 5.26 45.0107 5.32 45.2347 5.376C45.4667 5.424 45.7107 5.48 45.9667 5.544C46.2307 5.6 46.4747 5.692 46.6987 5.82C46.9307 5.948 47.1187 6.124 47.2627 6.348C47.4147 6.564 47.4907 6.856 47.4907 7.224C47.4907 7.6 47.4067 7.912 47.2387 8.16C47.0787 8.4 46.8707 8.596 46.6147 8.748C46.3587 8.892 46.0707 8.992 45.7507 9.048C45.4307 9.112 45.1147 9.144 44.8027 9.144C44.3947 9.144 43.9827 9.088 43.5667 8.976C43.1507 8.856 42.7987 8.648 42.5107 8.352L43.6027 7.14C43.7707 7.348 43.9547 7.508 44.1547 7.62C44.3627 7.724 44.6027 7.776 44.8747 7.776C45.0827 7.776 45.2707 7.748 45.4387 7.692C45.6067 7.628 45.6907 7.516 45.6907 7.356C45.6907 7.204 45.6147 7.092 45.4627 7.02C45.3187 6.94 45.1307 6.876 44.8987 6.828C44.6747 6.772 44.4307 6.716 44.1667 6.66C43.9107 6.596 43.6667 6.504 43.4347 6.384C43.2107 6.264 43.0227 6.096 42.8707 5.88C42.7267 5.656 42.6547 5.36 42.6547 4.992C42.6547 4.648 42.7227 4.352 42.8587 4.104C43.0027 3.856 43.1867 3.652 43.4107 3.492C43.6427 3.332 43.9067 3.216 44.2027 3.144C44.4987 3.064 44.7987 3.024 45.1027 3.024C45.4867 3.024 45.8747 3.08 46.2667 3.192C46.6587 3.304 46.9907 3.504 47.2627 3.792L46.1587 4.884ZM48.4133 3.168H50.1413V3.96H50.1653C50.2213 3.848 50.3013 3.736 50.4053 3.624C50.5093 3.512 50.6333 3.412 50.7773 3.324C50.9213 3.236 51.0853 3.164 51.2693 3.108C51.4533 3.052 51.6533 3.024 51.8693 3.024C52.2773 3.024 52.6373 3.108 52.9493 3.276C53.2693 3.444 53.5093 3.708 53.6693 4.068C53.8773 3.692 54.1293 3.424 54.4253 3.264C54.7213 3.104 55.0853 3.024 55.5173 3.024C55.9093 3.024 56.2373 3.092 56.5013 3.228C56.7733 3.356 56.9853 3.536 57.1373 3.768C57.2973 3.992 57.4093 4.26 57.4733 4.572C57.5453 4.876 57.5813 5.204 57.5813 5.556V9H55.7813V5.604C55.7813 5.332 55.7213 5.1 55.6013 4.908C55.4893 4.708 55.2853 4.608 54.9893 4.608C54.7813 4.608 54.6053 4.644 54.4613 4.716C54.3253 4.78 54.2133 4.872 54.1253 4.992C54.0453 5.112 53.9853 5.252 53.9453 5.412C53.9133 5.572 53.8973 5.74 53.8973 5.916V9H52.0973V5.916C52.0973 5.812 52.0933 5.684 52.0853 5.532C52.0773 5.38 52.0493 5.236 52.0013 5.1C51.9533 4.964 51.8733 4.848 51.7613 4.752C51.6573 4.656 51.5013 4.608 51.2933 4.608C51.0613 4.608 50.8733 4.652 50.7293 4.74C50.5853 4.82 50.4733 4.932 50.3933 5.076C50.3213 5.212 50.2733 5.368 50.2493 5.544C50.2253 5.72 50.2133 5.904 50.2133 6.096V9H48.4133V3.168Z" fill="black" fill-opacity="0.7"/>
</svg>
