<svg width="80" height="80" viewBox="0 0 80 80" fill="none" xmlns="http://www.w3.org/2000/svg">
<path d="M0 0C85.2857 0 65.4643 56.6607 65.5536 65.4107L80 80H75.3571L62.7857 67.2857C55.8214 68.0357 40.5714 73.4464 24.5 60.6786C8.39286 47.9107 9.28571 32.625 0 0ZM14.2321 8.21429C5.35714 4.01786 13.3036 9.85714 13.3036 9.85714C21.375 15.4286 25.0893 23.0179 29.4107 31.2679C35.0357 42.0179 43.5179 56.2143 55.1607 61.2143C66.7679 66.2143 61.2679 63.4464 56.2321 59.6964C51.1964 55.9107 44.0536 44.1607 39.9821 36.4464C34.3214 25.7321 29.0893 15.2679 14.2321 8.21429V8.21429Z" fill="white"/>
</svg>
